<svg width="57" height="56" viewBox="0 0 57 56" fill="none" xmlns="http://www.w3.org/2000/svg">
<rect x="0.5" width="56" height="56" rx="28" fill="#F8F8F8"/>
<path d="M28.5 37C32.518 33.7256 32.5891 40.3574 37.5 35M19.5 36.9955L22.2266 36.9999C22.6161 37.0005 22.8108 37.0008 22.9941 36.9568C23.1565 36.9178 23.3119 36.8534 23.4544 36.7658C23.6151 36.6669 23.7527 36.5287 24.0281 36.2521L37.0014 23.2218C37.5315 22.6894 37.6632 21.8663 37.2594 21.2158C36.7713 20.4295 36.1037 19.7533 35.3267 19.2513C34.704 18.849 33.8862 18.9371 33.3626 19.463L20.3099 32.573C20.0444 32.8396 19.9117 32.973 19.8154 33.1282C19.7301 33.2658 19.6661 33.4156 19.6257 33.5726C19.5801 33.7497 19.5755 33.9381 19.5662 34.3151L19.5 36.9955Z" stroke="#111111" stroke-width="2" stroke-linecap="round" stroke-linejoin="round"/>
</svg>
